<svg xmlns="http://www.w3.org/2000/svg" viewBox="0 0 720 360" role="img" aria-label="MarkForge AST diagram"><rect width="720" height="360" rx="24" fill="#020617"/><g font-family="Inter,Arial" fill="white" font-size="16"><rect x="290" y="30" width="140" height="46" rx="12" fill="#0ea5e9"/><text x="360" y="59" text-anchor="middle">document</text><rect x="90" y="140" width="140" height="46" rx="12" fill="#0369a1"/><text x="160" y="169" text-anchor="middle">heading</text><rect x="290" y="140" width="140" height="46" rx="12" fill="#0369a1"/><text x="360" y="169" text-anchor="middle">paragraph</text><rect x="490" y="140" width="140" height="46" rx="12" fill="#0369a1"/><text x="560" y="169" text-anchor="middle">list</text><rect x="250" y="260" width="100" height="42" rx="12" fill="#22c55e"/><text x="300" y="286" text-anchor="middle">text</text><rect x="370" y="260" width="100" height="42" rx="12" fill="#22c55e"/><text x="420" y="286" text-anchor="middle">bold</text></g><g stroke="#7dd3fc" stroke-width="3" fill="none"><path d="M360 76v36M360 112H160v28M360 112v28M360 112h200v28M360 186v42M360 228h-60v32M360 228h60v32"/></g></svg>
