<svg xmlns="http://www.w3.org/2000/svg" viewBox="0 0 1040 160" role="img" aria-label="MarkForge parser pipeline"><defs><linearGradient id="g" x1="0" x2="1"><stop stop-color="#0ea5e9"/><stop offset="1" stop-color="#22c55e"/></linearGradient></defs><rect width="1040" height="160" rx="24" fill="#020617"/><g font-family="Inter,Arial" font-size="18" font-weight="700" fill="white"><g transform="translate(30 55)"><rect width="110" height="50" rx="14" fill="url(#g)"/><text x="55" y="32" text-anchor="middle">Reader</text></g><g transform="translate(170 55)"><rect width="120" height="50" rx="14" fill="url(#g)"/><text x="60" y="32" text-anchor="middle">Tokenizer</text></g><g transform="translate(320 55)"><rect width="120" height="50" rx="14" fill="url(#g)"/><text x="60" y="32" text-anchor="middle">Stream</text></g><g transform="translate(470 55)"><rect width="110" height="50" rx="14" fill="url(#g)"/><text x="55" y="32" text-anchor="middle">Parser</text></g><g transform="translate(610 55)"><rect width="100" height="50" rx="14" fill="url(#g)"/><text x="50" y="32" text-anchor="middle">AST</text></g><g transform="translate(740 55)"><rect width="120" height="50" rx="14" fill="url(#g)"/><text x="60" y="32" text-anchor="middle">Renderer</text></g><g transform="translate(890 55)"><rect width="120" height="50" rx="14" fill="url(#g)"/><text x="60" y="32" text-anchor="middle">Output</text></g></g><g stroke="#7dd3fc" stroke-width="3"><path d="M145 80h20M295 80h20M445 80h20M585 80h20M715 80h20M865 80h20"/></g></svg>
